# xmcd
#
# Track frame offsets:
#	180
#	22801
#	40322
#	65159
#	87734
#	116148
#	136368
#	160360
#	172822
#	188540
#	205147
#	226112
#	247598
#	272585
#
# Disc length: 3677 seconds
#
# Revision: 1
# Processed by: cddbd v1.5.1PL0 Copyright (c) Steve Scherf et al.
# Submitted via: audiograbber 1.81.02
#
DISCID=b50e5b0e
DTITLE=Biersdorf and Kolbe - Two Live
DYEAR=2000
DGENRE=
TTITLE0=Hip Shakin' Woman (Dixon)
TTITLE1=Western Horizon (Lockwood)
TTITLE2=Bad Whiskey (Kolbe)
TTITLE3=Shoes (Kolbe)
TTITLE4=Death Letter (House)
TTITLE5=Thank You - Intro - That Look (Kolbe)
TTITLE6=Lowdown Blues (Kolbe)
TTITLE7=Shake Things Up Tonight (Kolbe)
TTITLE8=Parking Place (Kolbe)
TTITLE9=Shut Down Your Line (Kolbe)
TTITLE10=Good Woman Blues (Kolbe)
TTITLE11=Special Rider Blues (James)
TTITLE12=Mercury Blues (Douglas)
TTITLE13=Thank You
EXTD=
EXTT0=
EXTT1=
EXTT2=
EXTT3=
EXTT4=
EXTT5=
EXTT6=
EXTT7=
EXTT8=
EXTT9=
EXTT10=
EXTT11=
EXTT12=
EXTT13=
PLAYORDER=
